<?xml version="1.0" encoding="UTF-8"?>
<svg xmlns="http://www.w3.org/2000/svg" version="1.2" baseProfile="tiny-ps" viewBox="0 0 1000 1000">
<title>Glow Peptides</title>
<circle cx="500" cy="187.1" r="37" fill="#6ABCAB"/>
<circle cx="343.5" cy="229.1" r="37" fill="#6ABCAB"/>
<circle cx="656.4" cy="229.1" r="37" fill="#6ABCAB"/>
<circle cx="556" cy="291.2" r="26" fill="#6ABCAB"/>
<circle cx="444.1" cy="291.4" r="26" fill="#6ABCAB"/>
<circle cx="229" cy="343.5" r="37" fill="#6ABCAB"/>
<circle cx="771" cy="343.5" r="37" fill="#6ABCAB"/>
<circle cx="347.2" cy="347.3" r="26" fill="#6ABCAB"/>
<circle cx="652.9" cy="347.3" r="26" fill="#6ABCAB"/>
<circle cx="291.2" cy="444.1" r="26" fill="#6ABCAB"/>
<circle cx="708.8" cy="444.1" r="26" fill="#6ABCAB"/>
<circle cx="187.1" cy="500" r="37" fill="#6ABCAB"/>
<circle cx="812.9" cy="500" r="37" fill="#6ABCAB"/>
<circle cx="291.3" cy="555.9" r="26" fill="#6ABCAB"/>
<circle cx="708.7" cy="555.9" r="26" fill="#6ABCAB"/>
<circle cx="347.2" cy="652.8" r="26" fill="#6ABCAB"/>
<circle cx="652.8" cy="652.8" r="26" fill="#6ABCAB"/>
<circle cx="771" cy="656.3" r="37" fill="#6ABCAB"/>
<circle cx="229" cy="656.4" r="37" fill="#6ABCAB"/>
<circle cx="444.1" cy="708.7" r="26" fill="#6ABCAB"/>
<circle cx="555.9" cy="708.7" r="26" fill="#6ABCAB"/>
<circle cx="343.5" cy="770.9" r="37" fill="#6ABCAB"/>
<circle cx="656.4" cy="770.9" r="37" fill="#6ABCAB"/>
<circle cx="500" cy="812.8" r="37" fill="#6ABCAB"/>
</svg>
